<?xml version="1.0" encoding="UTF-8" standalone="no"?>
<svg
   height="24px"
   viewBox="0 -960 960 960"
   width="24px"
   fill="#1f1f1f"
   version="1.1"
   id="svg1"
   sodipodi:docname="icon.svg"
   inkscape:version="1.4.4 (dcaf3e7d9e, 2026-05-05)"
   xmlns:inkscape="http://www.inkscape.org/namespaces/inkscape"
   xmlns:sodipodi="http://sodipodi.sourceforge.net/DTD/sodipodi-0.dtd"
   xmlns="http://www.w3.org/2000/svg"
   xmlns:svg="http://www.w3.org/2000/svg">
  <style id="dark-mode-inversion-style">
    @media (prefers-color-scheme: dark) {
      path, rect, circle, polygon, ellipse, line, polyline {
        filter: invert(100%) hue-rotate(180deg) !important;
      }
    }
  </style>
  <defs
     id="defs1" />
  <sodipodi:namedview
     id="namedview1"
     pagecolor="#ffffff"
     bordercolor="#000000"
     borderopacity="0.25"
     inkscape:showpageshadow="2"
     inkscape:pageopacity="0.0"
     inkscape:pagecheckerboard="0"
     inkscape:deskcolor="#d1d1d1"
     inkscape:zoom="5.008673"
     inkscape:cx="-0.59896104"
     inkscape:cy="27.552208"
     inkscape:window-width="1707"
     inkscape:window-height="888"
     inkscape:window-x="0"
     inkscape:window-y="0"
     inkscape:window-maximized="1"
     inkscape:current-layer="svg1" />
  <path
     d="M 767.45591,-480.90687 Z"
     id="path6"
     style="stroke-width:1.19773" />
  <path
     d="m 671.63728,-672.54413 c -26.35012,0 -48.90742,-9.38224 -67.67191,-28.14673 -18.76448,-18.76448 -28.14672,-41.32178 -28.14672,-67.6719 v -95.81864 c 0,-26.35012 9.38224,-48.90742 28.14672,-67.6719 18.76449,-18.76449 41.32179,-28.14673 67.67191,-28.14673 h 191.63727 c 26.35012,0 48.90742,9.38224 67.6719,28.14673 18.76449,18.76448 28.14673,41.32178 28.14673,67.6719 v 95.81864 c 0,26.35012 -9.38224,48.90742 -28.14673,67.6719 -18.76448,18.76449 -41.32178,28.14673 -67.6719,28.14673 z m 0,-95.81863 H 863.27455 V -864.1814 H 671.63728 Z"
     id="path5"
     sodipodi:nodetypes="sssssssssssssccccc"
     style="stroke-width:1.19773;fill:#6f5387;fill-opacity:1" />
  <path
     d="m 48.816174,-864.1814 q -20.361459,0 -34.135388,-13.77392 -13.773928,-13.77393 -13.773928,-34.13539 0,-20.36146 13.773928,-34.13539 13.773929,-13.77393 34.135388,-13.77393 H 336.27207 q 20.36146,0 34.13539,13.77393 13.77393,13.77393 13.77393,34.13539 0,20.36146 -13.77393,34.13539 -13.77393,13.77392 -34.13539,13.77392 z"
     id="path4"
     style="stroke-width:1.19773;fill:#6f5387;fill-opacity:1" />
  <path
     d="m 48.816174,-648.13605 q -20.361459,0 -34.135388,-13.77393 -13.773928,-13.77392 -13.773928,-34.13538 0,-20.36146 13.773928,-34.13539 13.773929,-13.77393 34.135388,-13.77393 H 336.27207 q 20.36146,0 34.13539,13.77393 13.77393,13.77393 13.77393,34.13539 0,20.36146 -13.77393,34.13538 -13.77393,13.77393 -34.13539,13.77393 z"
     id="path3"
     style="stroke-width:1.19773;fill:#6f5387;fill-opacity:1" />
  <path
     d="m 48.816174,-216.04535 q -20.361459,0 -34.135388,-13.77393 -13.773928,-13.77393 -13.773928,-34.13539 0,-20.36146 13.773928,-34.13539 13.773929,-13.77392 34.135388,-13.77392 H 336.27207 q 20.36146,0 34.13539,13.77392 13.77393,13.77393 13.77393,34.13539 0,20.36146 -13.77393,34.13539 -13.77393,13.77393 -34.13539,13.77393 z"
     id="path2"
     style="stroke-width:1.19773;fill:#51644a;fill-opacity:1" />
  <path
     d="m 48.816174,-432.0907 q -20.361459,0 -34.135388,-13.77393 -13.773928,-13.77393 -13.773928,-34.13539 0,-20.36146 13.773928,-34.13538 13.773929,-13.77393 34.135388,-13.77393 H 336.27207 q 20.36146,0 34.13539,13.77393 13.77393,13.77392 13.77393,34.13538 0,20.36146 -13.77393,34.13539 -13.77393,13.77393 -34.13539,13.77393 z"
     id="path1"
     style="stroke-width:1.19773;fill:#1f1f1f;fill-opacity:1" />
  <path
     d="m 671.63728,-145.54166 c -26.35012,0 -48.90742,-9.38223 -67.67191,-28.14672 -18.76448,-18.76449 -28.14672,-41.32178 -28.14672,-67.67191 v -95.81863 c 0,-26.35012 9.38224,-48.90742 28.14672,-67.67191 18.76449,-18.76448 41.32179,-28.14672 67.67191,-28.14672 h 191.63727 c 26.35012,0 48.90742,9.38224 67.6719,28.14672 18.76449,18.76449 28.14673,41.32179 28.14673,67.67191 v 95.81863 c 0,26.35013 -9.38224,48.90742 -28.14673,67.67191 -18.76448,18.76449 -41.32178,28.14672 -67.6719,28.14672 z m 0,-95.81863 h 191.63727 v -95.81863 H 671.63728 Z"
     id="path7"
     sodipodi:nodetypes="sssssssssssssccccc"
     style="stroke-width:1.19773;fill:#51644a;fill-opacity:1" />
  <path
     d="m 527.90335,-1.813708 c -26.34848,0 -48.90437,-9.382237 -67.66769,-28.146723 C 441.47235,-48.724917 432.0907,-71.282216 432.0907,-97.63234 v -143.72795 c 0,-13.5743 4.59102,-24.95276 13.77307,-34.13539 9.18205,-9.18262 20.5598,-13.77392 34.13325,-13.77392 13.57346,0 24.95121,4.5913 34.13326,13.77392 9.18205,9.18263 13.77307,20.56109 13.77307,34.13539 v 143.72795 h 239.55556 c 13.57345,0 24.95121,4.591305 34.13325,13.773928 9.18205,9.182623 13.77307,20.561086 13.77307,34.135388 0,13.574302 -4.59102,24.952765 -13.77307,34.135388 -9.18204,9.1826225 -20.5598,13.773928 -34.13325,13.773928 z"
     id="path2-5"
     sodipodi:nodetypes="sssssssscssssss"
     style="stroke-width:1.1977;fill:#51644a;fill-opacity:1" />
  <path
     d="m 527.90335,-528.81618 c -26.34848,0 -48.90437,-9.38224 -67.66769,-28.14673 -18.76331,-18.76448 -28.14496,-41.32178 -28.14496,-67.67191 v -143.72794 c 0,-13.57431 4.59102,-24.95277 13.77307,-34.13539 9.18205,-9.18262 20.5598,-13.77393 34.13325,-13.77393 13.57346,0 24.95121,4.59131 34.13326,13.77393 9.18205,9.18262 13.77307,20.56108 13.77307,34.13539 v 143.72794 h 239.55556 c 13.57345,0 24.95121,4.59131 34.13325,13.77393 9.18205,9.18263 13.77307,20.56109 13.77307,34.13539 0,13.5743 -4.59102,24.95276 -13.77307,34.13539 -9.18204,9.18262 -20.5598,13.77393 -34.13325,13.77393 z"
     id="path8"
     sodipodi:nodetypes="sssssssscssssss"
     style="stroke-width:1.1977;fill:#6f5387;fill-opacity:1" />
  <path
     d="m 48.816174,-2.6287222e-6 q -20.361459,0 -34.135388,-13.7739283712778 -13.773928,-13.773931 -13.773928,-34.13539 0,-20.361459 13.773928,-34.135388 13.773929,-13.773928 34.135388,-13.773928 H 336.27207 q 20.36146,0 34.13539,13.773928 13.77393,13.773929 13.77393,34.135388 0,20.361459 -13.77393,34.13539 Q 356.63353,-2.6287222e-6 336.27207,-2.6287222e-6 Z"
     id="path9"
     style="stroke-width:1.19773;fill:#51644a;fill-opacity:1" />
</svg>
