<?xml version="1.0" encoding="UTF-8" standalone="no"?>
<svg
   height="24px"
   viewBox="0 -960 960 960"
   width="24px"
   fill="#1f1f1f"
   version="1.1"
   id="svg1"
   sodipodi:docname="icon.svg"
   inkscape:version="1.4.4 (dcaf3e7d9e, 2026-05-05)"
   xmlns:inkscape="http://www.inkscape.org/namespaces/inkscape"
   xmlns:sodipodi="http://sodipodi.sourceforge.net/DTD/sodipodi-0.dtd"
   xmlns="http://www.w3.org/2000/svg"
   xmlns:svg="http://www.w3.org/2000/svg">
  <style id="dark-mode-inversion-style">
    @media (prefers-color-scheme: dark) {
      path, rect, circle, polygon, ellipse, line, polyline {
        filter: invert(100%) hue-rotate(180deg) !important;
      }
    }
  </style>
  <defs
     id="defs1" />
  <sodipodi:namedview
     id="namedview1"
     pagecolor="#ffffff"
     bordercolor="#000000"
     borderopacity="0.25"
     inkscape:showpageshadow="2"
     inkscape:pageopacity="0.0"
     inkscape:pagecheckerboard="0"
     inkscape:deskcolor="#d1d1d1"
     showguides="false"
     inkscape:zoom="14.166667"
     inkscape:cx="-2.1529411"
     inkscape:cy="9.3176468"
     inkscape:window-width="1707"
     inkscape:window-height="888"
     inkscape:window-x="0"
     inkscape:window-y="0"
     inkscape:window-maximized="1"
     inkscape:current-layer="svg1" />
  <path
     id="path1"
     d="m 308.57143,-960 c -39.61906,0 -73.90477,13.48809 -102.85715,40.53571 -28.95237,27.04763 -44.58928,60.07143 -46.87499,98.92858 -44.95239,6.09523 -82.648809,26.09523 -113.125004,60 C 15.238093,-726.63095 0,-686.47619 0,-640 c 0,16.76191 2.0595205,32.79762 6.2500005,48.03571 4.1904805,15.2381 10.5476225,29.67858 18.9285715,43.39286 -8.380949,13.71429 -14.738092,28.39881 -18.9285715,44.01785 C 2.0595205,-488.93453 0,-473.14286 0,-457.14286 c 0,46.4762 15.238093,86.87501 45.714286,121.16071 30.476195,34.28572 68.571424,54.44048 114.285714,60.53573 3.80952,38.09523 19.84523,70.72023 48.03571,97.76785 28.19048,27.04762 61.67857,40.53571 100.53572,40.53571 19.04762,0 37.29762,-3.65476 54.82142,-10.89285 17.52381,-7.2381 38.89159,-13.69802 48.03572,-30.26786 15.45838,-28.01174 1.93282,-66.40346 0,-95.98214 0.002,-53.93099 15.90281,-106.66467 45.71428,-151.60715 v -385.53571 c 0,-16 5.55952,-29.48809 16.60715,-40.53572 11.04762,-11.04762 24.53571,-16.60714 40.53571,-16.60714 16,0 29.48809,5.55952 40.53572,16.60714 11.04762,11.04763 16.60714,24.53572 16.60714,40.53572 0,12.95238 -3.65477,24.38095 -10.89286,34.28571 -7.23809,9.90477 -16.51786,16.7262 -27.94643,20.53572 -12.19047,3.80952 -20.7619,11.42857 -25.71429,22.85714 -4.95238,11.42857 -5.50594,23.25595 -1.69642,35.44643 3.80952,12.19047 11.42857,21.00595 22.85714,26.33928 11.42857,5.33334 23.16666,5.64286 35.35714,1.07143 16,-6.09523 30.68453,-14.26785 44.01787,-24.55356 13.33332,-10.28572 24.20833,-22.26787 32.58928,-35.98215 25.14285,0.76191 46.64881,9.8869 64.55357,27.41072 17.90476,17.5238 26.875,38.87499 26.875,64.01785 0,25.14286 -15.64026,44.13175 -26.875,64.55358 -5.27324,9.5854 -23.88833,17.16961 -18.83929,26.87499 17.22436,33.10908 80.74085,20.4447 111.96429,0 13.20215,-8.64459 14.73809,-28.15476 18.92857,-43.39286 4.19048,-15.23809 6.25,-31.2738 6.25,-48.03571 0,-46.47619 -15.39286,-86.87499 -46.25,-121.16071 -30.85714,-34.28571 -68.79762,-54.44048 -113.75,-60.53572 -2.28571,-38.85715 -17.67857,-71.63691 -46.25,-98.30357 -28.57143,-26.66666 -62.70238,-40 -102.32143,-40 -19.80952,0 -38.45833,3.80952 -55.98215,11.42857 -17.5238,7.61905 -33.16071,17.94048 -46.87499,30.89286 -14.4762,-12.95238 -30.26786,-23.27381 -47.41072,-30.89286 C 346.87499,-956.19048 328.38095,-960 308.57143,-960 Z m 0,91.42857 c 16,0 29.48809,5.55952 40.53571,16.60714 11.04762,11.04763 16.60714,24.53572 16.60714,40.53572 v 525.71428 c 0,16 -5.55952,29.4881 -16.60714,40.53572 -11.04762,11.04762 -24.53571,16.60714 -40.53571,16.60714 -15.2381,0 -28.57143,-5.86905 -40,-17.67857 -11.42858,-11.80952 -17.54167,-25.3869 -18.30357,-40.62499 16,-6.09525 30.83928,-14.42263 44.55357,-25.0893 13.71428,-10.66666 25.94048,-23.29166 36.60714,-37.76785 7.61905,-10.66667 10.47619,-22.09524 8.57143,-34.28571 -1.90477,-12.19048 -8.17262,-22.1131 -18.83929,-29.73215 -10.66667,-7.61905 -22.09524,-10.47619 -34.28572,-8.57143 -12.19047,1.90477 -22.11308,8.26191 -29.73214,18.92857 -8.38094,12.19048 -19.0119,21.47024 -31.96428,27.94644 -12.95238,6.47618 -27.08334,9.73213 -42.32143,9.73213 -25.14286,0 -46.64881,-8.97024 -64.55358,-26.87499 C 100.39881,-410.49405 91.428571,-432 91.428571,-457.14286 c 0,-3.80952 0.15476,-7.61905 0.53571,-11.42857 0.38095,-3.80952 1.33334,-7.61905 2.85715,-11.42857 12.952369,7.61905 26.928569,13.33334 41.785709,17.14286 14.85714,3.80952 30.25,5.71428 46.25,5.71428 12.95238,0 23.82738,-4.36309 32.58928,-13.125 8.76191,-8.7619 13.12501,-19.63691 13.12501,-32.58928 0,-12.95238 -4.3631,-23.82739 -13.12501,-32.58928 -8.7619,-8.76191 -19.6369,-13.12501 -32.58928,-13.12501 -25.14286,0 -46.64881,-8.97024 -64.55358,-26.87499 C 100.39881,-593.35119 91.428571,-614.85714 91.428571,-640 c 0,-24.38095 8.970239,-45.48809 26.874989,-63.39286 17.90477,-17.90476 39.01191,-27.2738 63.39287,-28.03571 8.38095,13.71428 19.25594,25.69643 32.58928,35.98215 13.33334,10.28571 28.01785,18.45833 44.01785,24.55356 12.19048,4.57143 24.01787,4.26191 35.44644,-1.07143 11.42857,-5.33333 19.35714,-14.14881 23.92857,-26.33928 3.80952,-12.19048 3.10119,-24.01786 -2.23215,-35.44643 -5.33333,-11.42857 -14.1488,-19.04762 -26.33928,-22.85714 -11.42857,-3.80952 -20.55357,-10.78572 -27.41071,-21.07143 -6.85714,-10.28572 -10.26786,-21.55952 -10.26786,-33.75 0,-16 5.55952,-29.48809 16.60714,-40.53572 11.04762,-11.04762 24.53572,-16.60714 40.53572,-16.60714 z"
     sodipodi:nodetypes="sscssscssscsssaccsssssscssscscssaaassscssscssssssssscscssscssssscssssssssscscscscssss"
     style="stroke-width:1.14286;fill:#49672d;fill-opacity:1" />
  <path
     style="fill:#00687b;fill-opacity:1;stroke-width:0.6"
     d="M 936.00001,-167.99999 H 838.2 q -4.8,0 -9.3,-1.80001 -4.50001,-1.8 -8.09999,-5.40001 L 772.8,-223.2 q -3.60001,-3.6 -5.1,-7.79999 -1.50001,-4.2 -1.50001,-9.00001 0,-4.80001 1.50001,-9.00001 1.49999,-4.19999 5.1,-7.79999 l 48.00001,-47.99999 Q 824.39999,-308.4 828.9,-310.2 q 4.5,-1.80001 9.3,-1.80001 h 97.80001 q 10.19999,0 17.09999,6.9 6.9,6.9 6.9,17.10002 v 95.99998 q 0,10.20002 -6.9,17.10002 -6.9,6.9 -17.09999,6.9 z"
     id="path4" />
  <path
     style="fill:#00687b;fill-opacity:1;stroke-width:0.6"
     d="m 767.99999,0 h -95.99998 q -10.20002,0 -17.10002,-6.9 -6.9,-6.9 -6.9,-17.09999 V -121.8 q 0,-4.8 1.80001,-9.3 1.8,-4.50001 5.40001,-8.09999 L 703.2,-187.2 q 3.6,-3.6 7.79999,-5.1 4.2,-1.49999 9.00001,-1.49999 4.80001,0 9.00001,1.49999 4.19999,1.5 7.79999,5.1 l 47.99999,48.00001 q 3.60001,3.59998 5.40001,8.09999 1.80001,4.5 1.80001,9.3 v 97.80001 q 0,10.19999 -6.9,17.09999 -6.9,6.9 -17.10002,6.9 z M 744,-47.99999 v -63.6 l -24,-24.00002 -24,24.00002 v 63.6 z"
     id="path3" />
  <path
     style="fill:#89511f;fill-opacity:1;stroke-width:0.6"
     d="m 736.8,-292.8 q -3.6,3.60001 -7.79999,5.1 -4.2,1.50001 -9.00001,1.50001 -4.80001,0 -9.00001,-1.50001 -4.19999,-1.49999 -7.79999,-5.1 l -47.99999,-48.00001 Q 651.6,-344.39999 649.8,-348.9 q -1.80001,-4.5 -1.80001,-9.3 v -97.80001 q 0,-10.19999 6.9,-17.09999 6.9,-6.9 17.10002,-6.9 h 95.99998 q 10.20002,0 17.10002,6.9 6.9,6.9 6.9,17.09999 V -358.2 q 0,4.8 -1.80001,9.3 -1.8,4.50001 -5.40001,8.09999 z m 7.2,-75.6 V -432 h -48 v 63.6 l 24,24.00001 z"
     id="path2" />
  <path
     style="fill:#89511f;fill-opacity:1;stroke-width:0.6"
     d="m 667.2,-223.2 -48.00001,47.99999 Q 615.60001,-171.6 611.1,-169.8 q -4.5,1.80001 -9.3,1.80001 h -97.80001 q -10.19999,0 -17.09999,-6.9 -6.9,-6.9 -6.9,-17.10002 v -95.99998 q 0,-10.20002 6.9,-17.10002 6.9,-6.9 17.09999,-6.9 H 601.8 q 4.8,0 9.3,1.80001 4.50001,1.8 8.09999,5.40001 L 667.2,-256.8 q 3.6,3.6 5.1,7.79999 1.49999,4.2 1.49999,9.00001 0,4.80001 -1.49999,9.00001 -1.5,4.19999 -5.1,7.79999 z m -51.59999,-16.8 -24.00002,-24 h -63.6 v 48 h 63.6 z"
     id="path1-5" />
</svg>
