<?xml version="1.0" encoding="UTF-8" standalone="no"?>
<svg
   height="24px"
   viewBox="0 -960 960 960"
   width="24px"
   fill="#1f1f1f"
   version="1.1"
   id="svg1"
   sodipodi:docname="icon.svg"
   inkscape:version="1.4.4 (dcaf3e7d9e, 2026-05-05)"
   xmlns:inkscape="http://www.inkscape.org/namespaces/inkscape"
   xmlns:sodipodi="http://sodipodi.sourceforge.net/DTD/sodipodi-0.dtd"
   xmlns="http://www.w3.org/2000/svg"
   xmlns:svg="http://www.w3.org/2000/svg">
  <style id="dark-mode-inversion-style">
    @media (prefers-color-scheme: dark) {
      path, rect, circle, polygon, ellipse, line, polyline {
        filter: invert(100%) hue-rotate(180deg) !important;
      }
    }
  </style>
  <style
     id="dark-mode-inversion-style">
    @media (prefers-color-scheme: dark) {
      path, rect, circle, polygon, ellipse, line, polyline {
        filter: invert(100%) hue-rotate(180deg) !important;
      }
    }
  </style>
  <defs
     id="defs1" />
  <sodipodi:namedview
     id="namedview1"
     pagecolor="#ffffff"
     bordercolor="#000000"
     borderopacity="0.25"
     inkscape:showpageshadow="2"
     inkscape:pageopacity="0.0"
     inkscape:pagecheckerboard="0"
     inkscape:deskcolor="#d1d1d1"
     inkscape:zoom="10.002615"
     inkscape:cx="-7.5480264"
     inkscape:cy="-1.9494903"
     inkscape:window-width="1707"
     inkscape:window-height="888"
     inkscape:window-x="0"
     inkscape:window-y="0"
     inkscape:window-maximized="1"
     inkscape:current-layer="svg1" />
  <path
     d="m 481.41177,-463.05882 q 49.8,0 83.48824,-33.68823 33.68823,-33.68824 33.68823,-83.48824 0,-49.8 -33.68823,-83.48824 -33.68824,-33.68823 -83.48824,-33.68823 -49.8,0 -83.48824,33.68823 -33.68823,33.68824 -33.68823,83.48824 0,49.8 33.68823,83.48824 33.68824,33.68823 83.48824,33.68823 z"
     id="path7"
     style="fill:#507dff;stroke-width:2.92941;fill-opacity:1" />
  <path
     style="fill:#cccccc;stroke-width:0.0176471;stroke-linecap:round;stroke-linejoin:round"
     d="m 11.320244,3.3027574 c -1.200709,0.017344 -2.4044359,-0.023993 -3.6030587,0.056655 -2.7304175,0.2322542 -5.1230176,2.50666 -5.517867,5.2142944 -0.2898994,1.7938992 0.1969675,3.7218182 1.4108298,5.0917482 1.1865311,1.408405 3.0121046,2.262246 4.8592649,2.210427 2.509296,0.01918 5.019449,0.03627 7.528404,-0.01166 1.518519,-0.07094 2.990225,-0.739506 4.045933,-1.832468 1.038822,-1.00525 1.688485,-2.388001 1.807732,-3.827959 C 22.01701,8.5231723 21.501591,6.7667628 20.358088,5.5091912 19.341372,4.3032691 17.858109,3.4928191 16.279931,3.3595366 15.082312,3.2785341 13.8795,3.3201857 12.679757,3.3027574 c -0.453171,-5.141e-4 -0.906342,-5.136e-4 -1.359513,0 z M 12,5.1004137 c 1.130659,-0.044806 2.252569,0.4078464 3.060938,1.1943474 0.890876,0.7975631 1.458477,1.9780828 1.440027,3.1730241 0.05331,1.0051888 -0.25302,2.0222718 -0.872056,2.8180838 -0.713144,0.920925 -1.763253,1.643449 -2.939226,1.773529 -0.760748,0.04605 -1.554412,0.08585 -2.271514,-0.222326 C 8.7314521,13.20481 7.4524236,11.495846 7.4982767,9.6692098 7.4436022,8.5216374 7.8846467,7.3700493 8.6857307,6.5477482 9.4929209,5.6587367 10.659988,5.0763034 11.873619,5.1014545 11.91574,5.1007885 11.957875,5.100803 12,5.1004137 Z M 5.4000001,6.3176471 C 5.6713086,6.2760553 5.934538,6.3869045 6.1004365,6.6049633 6.3575722,6.8674265 6.3472773,7.297097 6.2279641,7.6189797 6.0647595,7.9122643 5.7549242,8.1362655 5.4064864,8.0888246 5.0034229,8.1544695 4.61314,7.8329832 4.5135111,7.4559513 4.483921,7.1487329 4.4685701,6.7920637 4.7296186,6.5721508 4.9025039,6.3643559 5.1337462,6.2853518 5.4000001,6.3176471 Z"
     id="path6"
     transform="matrix(40,0,0,40,0,-960)" />
  <path
     d="M 480,-576 Z"
     id="path5"
     style="stroke-width:1.2" />
  <path
     d="M 144,-48 Q 123.6,-48 109.8,-61.8 96,-75.6 96,-96 96,-116.4 109.8,-130.2 123.6,-144 144,-144 H 250.8 L 276,-244.8 Q 157.2,-265.2 78.6,-358.2 0,-451.2 0,-576 0,-716.4 97.8,-814.2 195.6,-912 336,-912 h 288 q 140.4,0 238.2,97.8 97.8,97.8 97.8,238.2 0,124.8 -78.6,217.8 -78.6,93 -197.4,113.4 L 709.2,-144 H 816 q 20.4,0 34.2,13.8 13.8,13.8 13.8,34.2 0,20.4 -13.8,34.2 Q 836.4,-48 816,-48 Z m 205.2,-96 h 261.6 l -24,-96 H 373.2 Z M 336,-336 h 288 q 99.6,0 169.8,-70.2 Q 864,-476.4 864,-576 864,-675.6 793.8,-745.8 723.6,-816 624,-816 H 336 q -99.6,0 -169.8,70.2 Q 96,-675.6 96,-576 q 0,99.6 70.2,169.8 70.2,70.2 169.8,70.2 z"
     id="path4"
     style="fill:#4d4d4d;stroke-width:1.2" />
  <path
     d="M 349.2,-144 H 610.8 Z"
     id="path3"
     style="stroke-width:1.2" />
  <path
     d="M 615.6,-440.4 Q 672,-496.8 672,-576 672,-655.2 615.6,-711.6 559.2,-768 480,-768 q -79.2,0 -135.6,56.4 -56.4,56.4 -56.4,135.6 0,79.2 56.4,135.6 56.4,56.4 135.6,56.4 79.2,0 135.6,-56.4 z M 412.2,-508.2 Q 384,-536.4 384,-576 q 0,-39.6 28.2,-67.8 28.2,-28.2 67.8,-28.2 39.6,0 67.8,28.2 28.2,28.2 28.2,67.8 0,39.6 -28.2,67.8 -28.2,28.2 -67.8,28.2 -39.6,0 -67.8,-28.2 z"
     id="path2"
     style="fill:#4d4d4d;stroke-width:1.2" />
  <path
     d="m 216,-624 q 20.4,0 34.2,-13.8 13.8,-13.8 13.8,-34.2 0,-20.4 -13.8,-34.2 -13.8,-13.8 -34.2,-13.8 -20.4,0 -34.2,13.8 -13.8,13.8 -13.8,34.2 0,20.4 13.8,34.2 13.8,13.8 34.2,13.8 z"
     id="path1"
     style="fill:#0055d4;stroke-width:1.2" />
</svg>
