<?xml version="1.0" encoding="UTF-8" standalone="no"?>
<svg
   height="24px"
   viewBox="0 -960 960 960"
   width="24px"
   fill="#1f1f1f"
   version="1.1"
   id="svg1"
   sodipodi:docname="icon.svg"
   inkscape:version="1.4.4 (dcaf3e7d9e, 2026-05-05)"
   xmlns:inkscape="http://www.inkscape.org/namespaces/inkscape"
   xmlns:sodipodi="http://sodipodi.sourceforge.net/DTD/sodipodi-0.dtd"
   xmlns="http://www.w3.org/2000/svg"
   xmlns:svg="http://www.w3.org/2000/svg">
  <style id="dark-mode-inversion-style">
    @media (prefers-color-scheme: dark) {
      path, rect, circle, polygon, ellipse, line, polyline {
        filter: invert(100%) hue-rotate(180deg) !important;
      }
    }
  </style>
  <defs
     id="defs1" />
  <sodipodi:namedview
     id="namedview1"
     pagecolor="#ffffff"
     bordercolor="#000000"
     borderopacity="0.25"
     inkscape:showpageshadow="2"
     inkscape:pageopacity="0.0"
     inkscape:pagecheckerboard="0"
     inkscape:deskcolor="#d1d1d1"
     inkscape:zoom="3.5416667"
     inkscape:cx="-34.164706"
     inkscape:cy="-4.5176471"
     inkscape:window-width="1707"
     inkscape:window-height="888"
     inkscape:window-x="0"
     inkscape:window-y="0"
     inkscape:window-maximized="1"
     inkscape:current-layer="svg1" />
  <path
     d="M 435.32727,-234.74279 Z"
     id="path5"
     style="stroke-width:1.17371" />
  <path
     d="m 549.76438,-502.93643 q 13.4977,13.49772 13.4977,33.45085 v 93.89711 q 0,19.95315 -13.4977,33.45085 -13.49771,13.49771 -33.45085,13.49771 -19.95312,0 -33.45084,-13.49771 -13.49771,-13.4977 -13.49771,-33.45085 v -93.89711 q 0,-19.95313 13.49771,-33.45085 13.49772,-13.49771 33.45084,-13.49771 19.95314,0 33.45085,13.49771 z"
     id="path3"
     style="stroke-width:1.17371" />
  <path
     d="m 408.91871,-549.88499 q 13.49771,13.49772 13.49771,33.45085 v 140.84567 q 0,19.95315 -13.49771,33.45085 -13.49772,13.49771 -33.45085,13.49771 -19.95313,0 -33.45085,-13.49771 -13.4977,-13.4977 -13.4977,-33.45085 v -140.84567 q 0,-19.95313 13.4977,-33.45085 13.49772,-13.4977 33.45085,-13.4977 19.95313,0 33.45085,13.4977 z"
     id="path2"
     style="stroke-width:1.17371" />
  <path
     d="M 320.30331,0 Q 292.13416,0 266.31246,-10.563426 240.49075,-21.126851 220.53762,-41.079988 L 13.963963,-248.82736 Q 1.0531093,-261.73821 0.46625229,-281.1045 -0.12060469,-300.47078 12.790249,-314.55535 l 3.521141,-3.52113 q 18.779424,-18.77942 44.014273,-25.23485 25.234851,-6.45543 49.882837,0.58686 l 77.46514,22.30057 v -383.80447 q 0,-19.95313 13.4977,-33.45084 13.4977,-13.49772 33.45084,-13.49772 19.95314,0 33.45085,13.49772 13.49771,13.49771 13.49771,33.45084 v 446.0113 q 0,23.47428 -18.77941,37.55885 -18.77944,14.08456 -41.07999,8.21599 l -53.99085,-15.25827 119.71883,119.71881 q 5.86856,5.86858 14.67141,9.976575 8.80286,4.107999 18.19258,4.107999 h 196.01022 q 38.73257,0 66.31484,-27.582274 27.58228,-27.58228 27.58228,-66.31483 v -187.79425 q 0,-19.95313 13.49771,-33.45085 13.49771,-13.4977 33.45085,-13.4977 19.95314,0 33.45085,13.4977 13.49771,13.49772 13.49771,33.45085 v 187.79425 q 0,77.46511 -55.16455,132.629664 Q 593.77865,0 516.31353,0 Z"
     id="path1"
     style="stroke-width:1.17371" />
  <path
     d="m 397.88902,-584.41153 q -19.95313,0 -33.45085,-13.49772 -13.4977,-13.4977 -13.4977,-33.45085 0,-2.34743 5.86857,-23.47428 9.38972,-16.43199 14.08456,-33.45085 4.69487,-17.01885 4.69487,-36.97199 0,-58.68569 -41.07999,-99.76568 -41.08,-41.07999 -99.76569,-41.07999 -58.6857,0 -99.76568,41.07999 -41.079994,41.07999 -41.079994,99.76568 0,19.95314 4.694857,36.97199 4.694857,17.01886 14.084557,33.45085 3.52115,5.86858 4.69487,11.73715 1.17371,5.86857 1.17371,11.73713 0,19.95315 -12.91086,33.45085 -12.910848,13.49772 -32.863985,13.49772 -12.910854,0 -24.061136,-7.04229 Q 37.558847,-598.4961 31.690276,-609.05953 16.431995,-634.88124 8.2159976,-664.22409 0,-693.56693 0,-725.25722 0,-822.67547 68.662266,-891.33774 137.32452,-960 234.74279,-960 q 97.41826,0 166.08052,68.66226 68.66227,68.66227 68.66227,166.08052 0,31.69029 -8.216,61.03313 -8.21599,29.34285 -23.47428,55.16456 -5.86856,10.56343 -16.432,17.60571 -10.56342,7.04229 -23.47428,7.04229 z"
     id="path4"
     style="fill:#ec6094;fill-opacity:1;stroke-width:1.17371" />
  <path
     d="m 904.09525,-873.21361 q -0.171,19.9525 -13.78385,33.334 -13.61285,13.3816 -33.56525,13.2107 -2.34735,-0.02 -23.42315,-6.0695 -16.35096,-9.5301 -33.32895,-14.3706 -16.978,-4.8405 -36.93042,-5.0115 -58.68353,-0.5027 -100.11395,40.2239 -41.43042,40.7265 -41.93319,99.4101 -0.50274,58.6835 40.22379,100.1139 40.72656,41.43042 99.41009,41.93317 19.95241,0.17095 37.01085,-4.37794 17.05844,-4.54888 33.57029,-13.79748 5.89851,-3.47072 11.77693,-4.59411 5.8784,-1.12341 11.74676,-1.07314 19.9524,0.17095 33.33902,13.19696 13.3866,13.02603 13.21567,32.97843 -0.11062,12.91038 -7.24817,23.99992 -7.13755,11.08955 -17.75085,16.8674 -25.95148,15.0365 -55.36365,23.00081 -29.41215,7.96432 -61.10128,7.69283 -97.41467,-0.83458 -165.48619,-70.08257 -68.07152,-69.24799 -67.23693,-166.66258 0.83455,-97.4147 70.08256,-165.4863 69.248,-68.0715 166.6627,-67.2369 31.68911,0.2715 60.96044,8.7386 29.27142,8.4671 54.9615,23.946 10.51274,5.9588 17.46429,16.5822 6.95153,10.6233 6.84094,23.5337 z"
     id="path7"
     style="fill:#00ba9d;fill-opacity:1;stroke-width:1.17371" />
  <path
     d="m 717.60547,-737.67923 q 13.49772,-13.4977 33.45085,-13.4977 h 140.84569 q 19.9531,0 33.45079,13.4977 13.4977,13.4977 13.4977,33.4508 0,19.95318 -13.4977,33.4509 -13.49769,13.4977 -33.45079,13.4977 H 751.05632 q -19.95313,0 -33.45085,-13.4977 -13.4977,-13.49772 -13.4977,-33.4509 0,-19.9531 13.4977,-33.4508 z"
     id="path6"
     style="stroke-width:1.17371" />
</svg>
