<?xml version="1.0" encoding="UTF-8" standalone="no"?>
<svg
   height="24px"
   viewBox="0 -960 960 960"
   width="24px"
   fill="#1f1f1f"
   version="1.1"
   id="svg1"
   sodipodi:docname="icon.svg"
   inkscape:version="1.4.4 (dcaf3e7d9e, 2026-05-05)"
   xmlns:inkscape="http://www.inkscape.org/namespaces/inkscape"
   xmlns:sodipodi="http://sodipodi.sourceforge.net/DTD/sodipodi-0.dtd"
   xmlns="http://www.w3.org/2000/svg"
   xmlns:svg="http://www.w3.org/2000/svg">
  <defs
     id="defs1" />
  <sodipodi:namedview
     id="namedview1"
     pagecolor="#ffffff"
     bordercolor="#000000"
     borderopacity="0.25"
     inkscape:showpageshadow="2"
     inkscape:pageopacity="0.0"
     inkscape:pagecheckerboard="0"
     inkscape:deskcolor="#d1d1d1"
     inkscape:zoom="7.0833333"
     inkscape:cx="-21.741176"
     inkscape:cy="12.141176"
     inkscape:window-width="1707"
     inkscape:window-height="888"
     inkscape:window-x="0"
     inkscape:window-y="0"
     inkscape:window-maximized="1"
     inkscape:current-layer="svg1" />
  <path
     d="M 435.32727,-234.74279 Z"
     id="path5"
     style="stroke-width:1.17371" />
  <path
     d="m 549.76438,-502.93643 q 13.4977,13.49772 13.4977,33.45085 v 93.89711 q 0,19.95315 -13.4977,33.45085 -13.49771,13.49771 -33.45085,13.49771 -19.95312,0 -33.45084,-13.49771 -13.49771,-13.4977 -13.49771,-33.45085 v -93.89711 q 0,-19.95313 13.49771,-33.45085 13.49772,-13.49771 33.45084,-13.49771 19.95314,0 33.45085,13.49771 z"
     id="path3"
     style="stroke-width:1.17371" />
  <path
     d="m 408.91871,-549.88499 q 13.49771,13.49772 13.49771,33.45085 v 140.84567 q 0,19.95315 -13.49771,33.45085 -13.49772,13.49771 -33.45085,13.49771 -19.95313,0 -33.45085,-13.49771 -13.4977,-13.4977 -13.4977,-33.45085 v -140.84567 q 0,-19.95313 13.4977,-33.45085 13.49772,-13.4977 33.45085,-13.4977 19.95313,0 33.45085,13.4977 z"
     id="path2"
     style="stroke-width:1.17371" />
  <path
     d="M 320.30331,0 Q 292.13416,0 266.31246,-10.563426 240.49075,-21.126851 220.53762,-41.079988 L 13.963963,-248.82736 Q 1.0531093,-261.73821 0.46625229,-281.1045 -0.12060469,-300.47078 12.790249,-314.55535 l 3.521141,-3.52113 q 18.779424,-18.77942 44.014273,-25.23485 25.234851,-6.45543 49.882837,0.58686 l 77.46514,22.30057 v -383.80447 q 0,-19.95313 13.4977,-33.45084 13.4977,-13.49772 33.45084,-13.49772 19.95314,0 33.45085,13.49772 13.49771,13.49771 13.49771,33.45084 v 446.0113 q 0,23.47428 -18.77941,37.55885 -18.77944,14.08456 -41.07999,8.21599 l -53.99085,-15.25827 119.71883,119.71881 q 5.86856,5.86858 14.67141,9.976575 8.80286,4.107999 18.19258,4.107999 h 196.01022 q 38.73257,0 66.31484,-27.582274 27.58228,-27.58228 27.58228,-66.31483 v -187.79425 q 0,-19.95313 13.49771,-33.45085 13.49771,-13.4977 33.45085,-13.4977 19.95314,0 33.45085,13.4977 13.49771,13.49772 13.49771,33.45085 v 187.79425 q 0,77.46511 -55.16455,132.629664 Q 593.77865,0 516.31353,0 Z"
     id="path1"
     style="stroke-width:1.17371" />
  <path
     d="m 397.88902,-584.41153 q -19.95313,0 -33.45085,-13.49772 -13.4977,-13.4977 -13.4977,-33.45085 0,-2.34743 5.86857,-23.47428 9.38972,-16.43199 14.08456,-33.45085 4.69487,-17.01885 4.69487,-36.97199 0,-58.68569 -41.07999,-99.76568 -41.08,-41.07999 -99.76569,-41.07999 -58.6857,0 -99.76568,41.07999 -41.079994,41.07999 -41.079994,99.76568 0,19.95314 4.694857,36.97199 4.694857,17.01886 14.084557,33.45085 3.52115,5.86858 4.69487,11.73715 1.17371,5.86857 1.17371,11.73713 0,19.95315 -12.91086,33.45085 -12.910848,13.49772 -32.863985,13.49772 -12.910854,0 -24.061136,-7.04229 Q 37.558847,-598.4961 31.690276,-609.05953 16.431995,-634.88124 8.2159976,-664.22409 0,-693.56693 0,-725.25722 0,-822.67547 68.662266,-891.33774 137.32452,-960 234.74279,-960 q 97.41826,0 166.08052,68.66226 68.66227,68.66227 68.66227,166.08052 0,31.69029 -8.216,61.03313 -8.21599,29.34285 -23.47428,55.16456 -5.86856,10.56343 -16.432,17.60571 -10.56342,7.04229 -23.47428,7.04229 z"
     id="path4"
     style="fill:#ec6094;fill-opacity:1;stroke-width:1.17371" />
  <path
     d="m 939.57111,-693.95302 q -16.808,10.75273 -35.45197,6.65659 -18.64399,-4.09612 -29.39674,-20.90404 -1.26504,-1.97741 -7.70679,-22.9366 -0.94561,-18.90194 -6.16227,-35.76815 -5.21667,-16.86621 -15.96944,-33.67414 -31.62575,-49.43502 -88.36829,-61.90153 -56.74255,-12.46651 -106.1776,19.15925 -49.43502,31.62575 -61.90153,88.3683 -12.4665,56.74256 19.15925,106.17758 10.75275,16.80793 23.87903,28.61402 13.12626,11.8061 29.89109,20.5878 6.12866,3.04595 10.27994,7.35695 4.15128,4.31097 7.31386,9.25448 10.75275,16.80791 7.15097,35.13565 -3.60179,18.32772 -20.4097,29.08048 -10.87572,6.95766 -24.06346,7.03434 -13.18775,0.0767 -23.82388,-5.65903 -26.76844,-13.52873 -49.50222,-33.81865 -22.73378,-20.2899 -39.8117,-46.98484 -52.49874,-82.06215 -31.66187,-176.90328 20.83687,-94.84113 102.89902,-147.33987 82.06217,-52.49879 176.90329,-31.66189 94.84112,20.83689 147.33991,102.89905 17.0779,26.69492 25.9698,55.84003 8.892,29.14514 9.9543,59.11925 0.7491,12.06088 -4.3541,23.68573 -5.1032,11.62484 -15.9789,18.58252 z"
     id="path7"
     style="fill:#00ba9d;fill-opacity:1;stroke-width:1.17371" />
  <path
     d="m 1182.1177,-179.61908 q -23.7958,15.07508 -51.2618,19.97047 -27.466,4.89536 -54.9996,-1.28185 l -285.68159,-64.94386 q -17.81584,-3.99702 -28.67571,-20.04261 -10.85985,-16.04558 -7.49096,-34.85291 l 1.0901,-4.85885 q 5.81385,-25.91394 23.67626,-44.87191 17.8624,-18.95797 42.45254,-26.19969 L 898.60006,-379.31836 693.2021,-703.5368 q -10.67817,-16.85538 -6.49948,-35.48102 4.1787,-18.62566 21.03409,-29.30384 16.85539,-10.67818 35.48103,-6.49946 18.62566,4.1787 29.30383,21.03408 l 238.68873,376.76759 q 12.5625,19.82987 4.2362,41.77784 -8.3264,21.94798 -30.30536,28.92493 l -53.77443,16.0045 165.20149,37.06327 q 8.098,1.81684 17.7327,0.57613 9.6346,-1.24075 17.5667,-6.26577 l 165.5792,-104.89739 q 32.7194,-20.72824 41.2585,-58.78937 8.5389,-38.06108 -12.1892,-70.78035 l -100.5005,-158.639 q -10.6782,-16.85538 -6.4994,-35.48108 4.1787,-18.62564 21.034,-29.30381 16.8554,-10.67814 35.4811,-6.4995 18.6256,4.17871 29.3038,21.0341 l 100.5005,158.63899 q 41.4564,65.43857 24.3782,141.56082 -17.0781,76.12219 -82.5167,117.5787 z"
     id="path8"
     style="stroke-width:1.17371" />
</svg>
