<?xml version="1.0" encoding="UTF-8" standalone="no"?>
<svg
   height="24px"
   viewBox="0 -960 960 960"
   width="24px"
   fill="#1f1f1f"
   version="1.1"
   id="svg1"
   sodipodi:docname="icon.svg"
   inkscape:version="1.4.4 (dcaf3e7d9e, 2026-05-05)"
   xmlns:inkscape="http://www.inkscape.org/namespaces/inkscape"
   xmlns:sodipodi="http://sodipodi.sourceforge.net/DTD/sodipodi-0.dtd"
   xmlns="http://www.w3.org/2000/svg"
   xmlns:svg="http://www.w3.org/2000/svg">
  <style id="dark-mode-inversion-style">
    @media (prefers-color-scheme: dark) {
      path, rect, circle, polygon, ellipse, line, polyline {
        filter: invert(100%) hue-rotate(180deg) !important;
      }
    }
  </style>
  <defs
     id="defs1" />
  <sodipodi:namedview
     id="namedview1"
     pagecolor="#ffffff"
     bordercolor="#000000"
     borderopacity="0.25"
     inkscape:showpageshadow="2"
     inkscape:pageopacity="0.0"
     inkscape:pagecheckerboard="0"
     inkscape:deskcolor="#d1d1d1"
     inkscape:zoom="20.034692"
     inkscape:cx="9.982684"
     inkscape:cy="10.531732"
     inkscape:window-width="1707"
     inkscape:window-height="888"
     inkscape:window-x="0"
     inkscape:window-y="0"
     inkscape:window-maximized="1"
     inkscape:current-layer="svg1" />
  <path
     d="M 494,-440 Z"
     id="path2" />
  <path
     d="m 187.95294,0 v -206.4 q -68.4,-62.4 -106.199999,-145.8 -37.8,-83.4 -37.8,-175.8 0,-180 125.999999,-306 126,-126 306,-126 150,0 265.8,88.2 115.8,88.2 150.6,229.8 l 62.4,246 q 6,22.8 -8.4,41.4 -14.4,18.6 -38.4,18.6 h -96 v 144 q 0,39.6 -28.2,67.8 -28.2,28.2 -67.8,28.2 h -96 V 0 h -96 v -192 h 192 v -240 h 129.6 l -45.6,-186 q -27.6,-109.2 -117.6,-177.6 -90,-68.4 -206.4,-68.4 -139.2,0 -237.6,97.2 -98.4,97.2 -98.4,236.4 0,72 29.4,136.8 29.4,64.8 83.4,115.2 l 31.2,28.8 V 0 Z"
     id="path1"
     style="stroke-width:1.2;fill:#4f378b;fill-opacity:1" />
  <path
     d="m 448.52912,-247.82712 c -8.72643,-8.72642 -13.08965,-19.21673 -13.08965,-31.47087 h 89.12106 c 0,12.25414 -4.36322,22.74445 -13.08965,31.47087 -8.72644,8.72644 -19.21673,13.08966 -31.47088,13.08966 -12.25415,0 -22.74444,-4.36322 -31.47088,-13.08966 z m -35.36992,-118.331 c -6.31275,0 -11.60431,-2.13519 -15.87469,-6.40558 -4.27038,-4.27037 -6.40558,-9.56193 -6.40558,-15.87468 0,-6.31275 2.1352,-11.60431 6.40558,-15.8747 4.27038,-4.27037 9.56194,-6.40557 15.87469,-6.40557 h 133.6816 c 6.31275,0 11.60431,2.1352 15.87469,6.40557 4.27038,4.27039 6.40558,9.56195 6.40558,15.8747 0,6.31275 -2.1352,11.60431 -6.40558,15.87468 -4.27038,4.27039 -9.56194,6.40558 -15.87469,6.40558 z M 396.449,-497.55383 c -25.62231,-15.22485 -45.95305,-35.64842 -60.99223,-61.27073 -15.03918,-25.62231 -22.55877,-53.47264 -22.55877,-83.551 0,-46.41723 16.24602,-85.87186 48.73808,-118.36392 32.49206,-32.49206 71.94669,-48.73808 118.36392,-48.73808 46.41723,0 85.87186,16.24602 118.36392,48.73808 32.49206,32.49206 48.73808,71.94669 48.73808,118.36392 0,30.07836 -7.51959,57.92869 -22.55877,83.551 -15.03918,25.62231 -35.36992,46.04588 -60.99223,61.27073 z m 13.36816,-44.56053 h 140.36568 c 16.7102,-11.88281 29.61418,-26.55065 38.71196,-44.00353 9.09778,-17.45288 13.64667,-36.20543 13.64667,-56.25767 0,-34.16308 -11.88282,-63.12743 -35.64843,-86.89304 -23.76561,-23.76561 -52.72996,-35.64843 -86.89304,-35.64843 -34.16308,0 -63.12743,11.88282 -86.89304,35.64843 -23.76561,23.76561 -35.64843,52.72996 -35.64843,86.89304 0,20.05224 4.54889,38.80479 13.64667,56.25767 9.09778,17.45288 22.00176,32.12072 38.71196,44.00353 z"
     id="path1-5"
     style="fill:#006a6a;fill-opacity:1;stroke:#006a6a;stroke-width:44.6307;stroke-dasharray:none;stroke-opacity:1"
     sodipodi:nodetypes="sccsssssssssssssscsssssssccccsssssssc" />
</svg>
