<?xml version="1.0" encoding="UTF-8" standalone="no"?>
<svg
   height="24px"
   viewBox="0 -960 960 960"
   width="24px"
   fill="#1f1f1f"
   version="1.1"
   id="svg1"
   sodipodi:docname="icon.svg"
   inkscape:version="1.4.3 (0d15f75042, 2025-12-25)"
   xmlns:inkscape="http://www.inkscape.org/namespaces/inkscape"
   xmlns:sodipodi="http://sodipodi.sourceforge.net/DTD/sodipodi-0.dtd"
   xmlns="http://www.w3.org/2000/svg"
   xmlns:svg="http://www.w3.org/2000/svg">
  <style id="dark-mode-inversion-style">
    @media (prefers-color-scheme: dark) {
      path, rect, circle, polygon, ellipse, line, polyline {
        filter: invert(100%) hue-rotate(180deg) !important;
      }
    }
  </style>
  <defs
     id="defs1" />
  <sodipodi:namedview
     id="namedview1"
     pagecolor="#ffffff"
     bordercolor="#000000"
     borderopacity="0.25"
     inkscape:showpageshadow="2"
     inkscape:pageopacity="0.0"
     inkscape:pagecheckerboard="0"
     inkscape:deskcolor="#d1d1d1"
     inkscape:zoom="28.333333"
     inkscape:cx="12"
     inkscape:cy="12"
     inkscape:window-width="1707"
     inkscape:window-height="888"
     inkscape:window-x="0"
     inkscape:window-y="0"
     inkscape:window-maximized="1"
     inkscape:current-layer="svg1" />
  <path
     d="m 0,-213.33333 v -533.33334 q 0,-44 31.333333,-75.33333 31.333334,-31.33333 75.333337,-31.33333 h 746.66666 q 44,0 75.33334,31.33333 Q 960,-790.66667 960,-746.66667 v 533.33334 q 0,44 -31.33333,75.33333 -31.33334,31.33333 -75.33334,31.33333 H 106.66667 Q 62.666667,-106.66667 31.333333,-138 0,-169.33333 0,-213.33333 Z m 390.66667,-320 H 853.33333 V -746.66667 H 390.66667 Z m 285.33333,320 H 853.33333 V -426.66667 H 676 Z m -285.33333,0 H 569.33333 V -426.66667 H 390.66667 Z m -284,0 H 284 V -746.66667 H 106.66667 Z"
     id="path1"
     style="stroke-width:1.33333" />
  <path
     style="fill:#d4c48b;stroke-width:0.105882;stroke-linecap:round;stroke-linejoin:round"
     d="M 2.5404871,5.1106158 C 2.2911236,5.333731 2.440841,5.7063657 2.4,6 c 0,4.211765 0,8.42353 0,12.635294 0.020871,0.318718 0.3760845,0.320472 0.6176471,0.3 1.3637885,-0.0065 2.7312468,0.01301 4.0927408,-0.0098 0.358614,-0.05835 0.251731,-0.488268 0.2660827,-0.749061 0,-4.270589 0,-8.5411769 0,-12.8117651 -0.020871,-0.3187174 -0.3760846,-0.3204723 -0.6176471,-0.3 -1.3637885,0.0065 -2.7312468,-0.013011 -4.0927408,0.00976 -0.041865,0.012049 -0.08373,0.024099 -0.1255956,0.036148 z"
     id="path2"
     transform="matrix(40,0,0,40,0,-960)" />
  <path
     style="fill:#7dd3c3;stroke-width:0.105882;stroke-linecap:round;stroke-linejoin:round"
     d="M 9.6346048,5.1106158 C 9.3852413,5.333731 9.5349586,5.7063657 9.4941176,6 c 0.00651,1.5637884 -0.013012,3.1312472 0.00976,4.692741 0.058348,0.358614 0.4882679,0.251731 0.7490614,0.266083 3.682353,0 7.364706,0 11.047059,0 0.318718,-0.02087 0.320472,-0.376085 0.3,-0.617648 -0.0065,-1.6696702 0.01301,-3.3430113 -0.0098,-5.0103874 -0.05835,-0.3586141 -0.488268,-0.2517312 -0.749062,-0.2660827 -3.682352,0 -7.364706,0 -11.0470583,0 -0.053171,0.015303 -0.1063419,0.030607 -0.1595128,0.04591 z"
     id="path3"
     transform="matrix(40,0,0,40,0,-960)" />
  <path
     style="fill:#b5c4e8;stroke-width:0.105882;stroke-linecap:round;stroke-linejoin:round"
     d="m 9.6346048,13.087086 c -0.2493635,0.223116 -0.099646,0.59575 -0.1404872,0.889385 0.00651,1.563788 -0.013012,3.131247 0.00976,4.69274 0.058348,0.358614 0.4882679,0.251731 0.7490614,0.266083 1.328489,-0.0065 2.660664,0.01304 3.986859,-0.0098 0.358614,-0.05835 0.251731,-0.488268 0.266082,-0.749061 -0.0065,-1.622612 0.01301,-3.248895 -0.0098,-4.869212 -0.05835,-0.358614 -0.488267,-0.251731 -0.749061,-0.266083 -1.328489,0.0065 -2.660664,-0.01304 -3.9868585,0.0098 -0.041865,0.01205 -0.08373,0.0241 -0.1255956,0.03615 z"
     id="path4"
     transform="matrix(40,0,0,40,0,-960)" />
  <path
     style="fill:#e4b5c0;stroke-width:0.105882;stroke-linecap:round;stroke-linejoin:round"
     d="m 16.764017,13.087086 c -0.249364,0.223116 -0.09965,0.59575 -0.140488,0.889385 0.0065,1.563788 -0.01301,3.131247 0.0098,4.69274 0.05835,0.358614 0.488268,0.251731 0.749062,0.266083 1.31673,-0.0065 2.637129,0.01301 3.951564,-0.0098 0.358614,-0.05835 0.251731,-0.488268 0.266083,-0.749061 -0.0065,-1.622612 0.01301,-3.248895 -0.0098,-4.869212 -0.05835,-0.358614 -0.488268,-0.251731 -0.749062,-0.266083 -1.316729,0.0065 -2.637129,-0.01301 -3.951564,0.0098 -0.04187,0.01205 -0.08373,0.0241 -0.125595,0.03615 z"
     id="path5"
     transform="matrix(40,0,0,40,0,-960)" />
</svg>
