<?xml version="1.0" encoding="UTF-8" standalone="no"?>
<svg
   height="24px"
   viewBox="0 -960 960 960"
   width="24px"
   fill="#1f1f1f"
   version="1.1"
   id="svg1"
   sodipodi:docname="icon.svg"
   inkscape:version="1.4.4 (dcaf3e7d9e, 2026-05-05)"
   xmlns:inkscape="http://www.inkscape.org/namespaces/inkscape"
   xmlns:sodipodi="http://sodipodi.sourceforge.net/DTD/sodipodi-0.dtd"
   xmlns="http://www.w3.org/2000/svg"
   xmlns:svg="http://www.w3.org/2000/svg">
  <style id="dark-mode-inversion-style">
    @media (prefers-color-scheme: dark) {
      path, rect, circle, polygon, ellipse, line, polyline {
        filter: invert(100%) hue-rotate(180deg) !important;
      }
    }
  </style>
  <defs
     id="defs1" />
  <sodipodi:namedview
     id="namedview1"
     pagecolor="#ffffff"
     bordercolor="#000000"
     borderopacity="0.25"
     inkscape:showpageshadow="2"
     inkscape:pageopacity="0.0"
     inkscape:pagecheckerboard="0"
     inkscape:deskcolor="#d1d1d1"
     inkscape:zoom="14.145833"
     inkscape:cx="7.8114875"
     inkscape:cy="11.911635"
     inkscape:window-width="1707"
     inkscape:window-height="888"
     inkscape:window-x="0"
     inkscape:window-y="0"
     inkscape:window-maximized="1"
     inkscape:current-layer="svg1" />
  <path
     style="stroke-width:1.2;fill:#dba437;fill-opacity:1"
     d="m 576,-528 q -39.6,0 -67.8,-28.2 Q 480,-584.4 480,-624 v -144 q 0,-39.6 28.2,-67.8 28.2,-28.2 67.8,-28.2 h 288 q 39.6,0 67.8,28.2 28.2,28.2 28.2,67.8 v 144 q 0,39.6 -28.2,67.8 -28.2,28.2 -67.8,28.2 z m 0,-96 H 864 V -768 H 576 Z m 0,0 v -144 z"
     id="path4" />
  <path
     style="stroke-width:1.2"
     d="m 192,-504 -67.2,-67.2 75.6,-76.8 H 0 v -96 h 200.4 l -75.6,-76.8 67.2,-67.2 192,192 z"
     id="path3" />
  <path
     style="stroke-width:1.2;fill:#53b5f7;fill-opacity:1"
     d="M 96,-96 Q 56.4,-96 28.2,-124.2 0,-152.4 0,-192 V -336 Q 0,-375.6 28.2,-403.8 56.4,-432 96,-432 h 288 q 39.6,0 67.8,28.2 28.2,28.2 28.2,67.8 v 144 q 0,39.6 -28.2,67.8 Q 423.6,-96 384,-96 Z m 0,-96 H 384 V -336 H 96 Z m 288,0 v -144 z"
     id="path2" />
  <path
     style="stroke-width:1.2"
     d="m 768,-72 -192,-192 192,-192 67.2,67.2 -75.6,76.8 H 960 v 96 H 759.6 l 75.6,76.8 z"
     id="path1" />
</svg>
