<?xml version="1.0" encoding="UTF-8" standalone="no"?>
<svg
   height="24px"
   viewBox="0 -960 960 960"
   width="24px"
   fill="#1f1f1f"
   version="1.1"
   id="svg1"
   sodipodi:docname="icon.svg"
   inkscape:version="1.4.4 (dcaf3e7d9e, 2026-05-05)"
   xmlns:inkscape="http://www.inkscape.org/namespaces/inkscape"
   xmlns:sodipodi="http://sodipodi.sourceforge.net/DTD/sodipodi-0.dtd"
   xmlns="http://www.w3.org/2000/svg"
   xmlns:svg="http://www.w3.org/2000/svg">
  <style id="dark-mode-inversion-style">
    @media (prefers-color-scheme: dark) {
      path, rect, circle, polygon, ellipse, line, polyline {
        filter: invert(100%) hue-rotate(180deg) !important;
      }
    }
  </style>
  <defs
     id="defs1" />
  <sodipodi:namedview
     id="namedview1"
     pagecolor="#ffffff"
     bordercolor="#000000"
     borderopacity="0.25"
     inkscape:showpageshadow="2"
     inkscape:pageopacity="0.0"
     inkscape:pagecheckerboard="0"
     inkscape:deskcolor="#d1d1d1"
     inkscape:zoom="9.7669124"
     inkscape:cx="-2.8156288"
     inkscape:cy="20.323721"
     inkscape:window-width="1707"
     inkscape:window-height="888"
     inkscape:window-x="0"
     inkscape:window-y="0"
     inkscape:window-maximized="1"
     inkscape:current-layer="path2" />
  <path
     d="M 144,0 C 117.6,0 95.000004,-9.3999996 76.2,-28.2 57.399996,-47.000004 48,-69.6 48,-96 v -672 c 0,-26.4 9.399996,-49 28.2,-67.8 18.800004,-18.8 41.4,-28.2 67.8,-28.2 h 48 v -48 c 0,-13.6 4.6,-25 13.8,-34.2 9.2,-9.2 20.6,-13.8 34.2,-13.8 13.6,0 25,4.6 34.2,13.8 9.2,9.2 13.8,20.6 13.8,34.2 v 48 h 384 v -48 c 0,-13.6 4.6,-25 13.8,-34.2 9.2,-9.2 20.6,-13.8 34.2,-13.8 13.6,0 25,4.6 34.2,13.8 9.2,9.2 13.8,20.6 13.8,34.2 v 48 h 48 c 26.4,0 49,9.4 67.8,28.2 18.8,18.8 28.2,41.4 28.2,67.8 v 306 c 0,13.6 -4.6,25 -13.8,34.2 -9.2,9.2 -20.6,13.8 -34.2,13.8 -13.6,0 -25,-4.6 -34.2,-13.8 C 820.6,-437 816,-448.4 816,-462 V -576 H 144 v 480 h 298.8 c 13.6,0 24.8,4.599996 33.6,13.8 8.8,9.200004 13.2,20.600004 13.2,34.2 0,13.599996 -4.6,25 -13.8,34.2 C 466.6,-4.5999996 455.2,0 441.6,0 Z m 0,-672 h 672 v -96 H 144 Z m 0,0 v -96 z"
     id="path1"
     sodipodi:nodetypes="sssssscsssssccssssscsssssssscccsssssscccccccc"
     style="stroke-width:1.2" />
  <path
     d="m 581.75152,-443.04187 q 28.67999,-8.15513 59.04966,-4.56234 34.16586,4.04189 63.54329,22.5297 29.37742,18.48781 47.40268,48.33546 4.84101,7.88645 2.8815,16.31563 -1.95953,8.4292 -9.84597,13.27021 -7.88645,4.84103 -16.48299,2.66925 -8.59654,-2.17179 -13.43757,-10.05823 -12.93935,-20.77743 -33.91214,-33.84423 -20.9728,-13.0668 -45.26853,-15.94101 -21.25875,-2.51496 -41.94214,3.12177 -20.68338,5.63673 -37.66461,19.02516 -16.98122,13.38844 -27.28856,32.18561 -10.30735,18.79718 -12.82231,40.05594 -2.87422,24.29573 4.93813,47.73857 7.81235,23.44283 24.99698,40.87315 6.53915,6.5476 6.47773,15.20134 -0.0614,8.65375 -6.60901,15.1929 -6.12307,6.20443 -14.82173,6.52263 -8.69864,0.31821 -15.23779,-6.22939 -24.81775,-24.49228 -35.94035,-57.37266 -11.1226,-32.88038 -7.08073,-67.04626 3.59279,-30.36966 18.21492,-56.35506 14.62212,-25.9854 38.39584,-44.72922 23.77371,-18.7438 52.4537,-26.89892 z m 189.63825,427.384759 q -28.67999,8.1551142 -59.04965,4.562328 -34.16587,-4.041876 -62.9065,-23.031756 -28.74062,-18.98988 -47.28024,-47.743572 -4.84101,-7.886444 -3.09375,-16.148284 1.74724,-8.261835 9.63369,-13.102855 7.88644,-4.84102 16.31563,-2.88151 8.4292,1.95953 13.27023,9.84597 12.93933,20.777427 33.91213,33.844227 20.9728,13.066788 45.26852,15.941016 21.25877,2.514948 41.94215,-3.121776 20.68338,-5.636724 37.66461,-19.025172 16.98122,-13.38844 27.28857,-32.185605 10.30734,-18.79717 12.82229,-40.05593 2.87425,-24.29574 -4.93812,-47.73856 -7.81234,-23.44284 -24.99698,-40.87316 -6.53915,-6.54759 -6.47774,-15.20134 0.0614,-8.65374 6.60902,-15.19289 6.5476,-6.53915 15.20134,-6.47773 8.65374,0.0614 15.19289,6.60902 24.39322,24.82698 35.56073,57.32774 11.16751,32.50077 7.12565,66.66664 -3.59283,30.36966 -18.21493,56.355055 -14.62212,25.9854 -38.39585,44.729208 -23.77371,18.743808 -52.45369,26.898936 z M 580.39835,-163.16271 q -1.28166,-3.80849 -0.83256,-7.60469 0.73547,-32.24742 16.05159,-60.84526 15.31611,-28.59785 40.78795,-48.68049 25.47184,-20.08266 56.85408,-28.30304 31.38224,-8.22037 62.9111,-1.41097 3.79622,0.44909 7.20052,2.58403 3.4043,2.13494 5.74728,5.10665 2.34298,2.97172 3.62462,6.78021 1.28165,3.80848 0.83255,7.6047 -0.73544,32.24742 -16.05157,60.84525 -15.31612,28.59784 -40.78795,48.6805 -25.47184,20.08266 -56.85408,28.30303 -31.38225,8.22036 -62.91112,1.41097 -3.7962,-0.44909 -7.2005,-2.58403 -3.40431,-2.13494 -5.74728,-5.10665 -2.34298,-2.97171 -3.62463,-6.78021 z"
     id="path1-5"
     style="fill:#445500;fill-opacity:1;stroke:#445500;stroke-width:20;stroke-opacity:1" />
  <g
     id="path2"
     style="opacity:1">
    <path
       style="baseline-shift:baseline;display:inline;overflow:visible;vector-effect:none;fill:#89a900;enable-background:accumulate;stop-color:#000000;stop-opacity:1;stroke-width:20;fill-opacity:1;stroke:#89a900"
       d="m 580.39835,-163.16271 q -1.28166,-3.80849 -0.83256,-7.60469 0.73547,-32.24742 16.05159,-60.84526 15.31611,-28.59785 40.78795,-48.68049 25.47184,-20.08266 56.85408,-28.30304 31.38224,-8.22037 62.9111,-1.41097 3.79622,0.44909 7.20052,2.58403 3.4043,2.13494 5.74728,5.10665 2.34298,2.97172 3.62462,6.78021 1.28165,3.80848 0.83255,7.6047 -0.73544,32.24742 -16.05157,60.84525 -15.31612,28.59784 -40.78795,48.6805 -25.47184,20.08266 -56.85408,28.30303 -31.38225,8.22036 -62.91112,1.41097 -3.7962,-0.44909 -7.2005,-2.58403 -3.40431,-2.13494 -5.74728,-5.10665 -2.34298,-2.97171 -3.62463,-6.78021 z"
       id="path7" />
  </g>
</svg>
