<?xml version="1.0" encoding="UTF-8" standalone="no"?>
<svg
        height="24px"
        viewBox="0 -960 960 960"
        width="24px"
        fill="#1f1f1f"
        version="1.1"
        id="svg1"
        sodipodi:docname="icon.svg"
        xml:space="preserve"
        inkscape:version="1.4.3 (0d15f75042, 2025-12-25)"
        xmlns:inkscape="http://www.inkscape.org/namespaces/inkscape"
        xmlns:sodipodi="http://sodipodi.sourceforge.net/DTD/sodipodi-0.dtd"
        xmlns="http://www.w3.org/2000/svg"
        xmlns:svg="http://www.w3.org/2000/svg">
  <style id="dark-mode-inversion-style">
    @media (prefers-color-scheme: dark) {
      path, rect, circle, polygon, ellipse, line, polyline {
        filter: invert(100%) hue-rotate(180deg) !important;
      }
    }
  </style><defs
     id="defs1" />
    <sodipodi:namedview
            id="namedview1"
            pagecolor="#ffffff"
            bordercolor="#000000"
            borderopacity="0.25"
            inkscape:showpageshadow="2"
            inkscape:pageopacity="0.0"
            inkscape:pagecheckerboard="0"
            inkscape:deskcolor="#d1d1d1"
            inkscape:zoom="10.017346"
            inkscape:cx="0"
            inkscape:cy="4.2925541"
            inkscape:window-width="1707"
            inkscape:window-height="888"
            inkscape:window-x="0"
            inkscape:window-y="0"
            inkscape:window-maximized="1"
            inkscape:current-layer="svg1"/>
    <path
            style="fill:#e6fff4;stroke:none;stroke-width:12.3226;stroke-linecap:round;stroke-linejoin:round"
            d="m 164.94,-867.59662 0.79269,462.63386 650.72309,12.0026 2.32448,-464.12846 -644.82848,-14.05656 z"
            id="path13"
            sodipodi:nodetypes="cccccc"/>
    <path
            d="m 429.47368,0 q -41.6842,0 -71.36841,-29.68421 -29.68421,-29.684211 -29.68421,-71.36842 V -303.1579 H 176.84211 q -41.68421,0 -71.36843,-29.6842 -29.684206,-29.68422 -29.684206,-71.36843 v -353.6842 q 0,-83.36842 59.368426,-142.73685 Q 194.52632,-960 277.89475,-960 h 555.78946 q 21.47369,0 36,14.52632 14.52632,14.52631 14.52632,36 v 505.26315 q 0,41.68421 -29.68421,71.36843 -29.68421,29.6842 -71.36842,29.6842 H 631.57895 v 202.10527 q 0,41.684209 -29.6842,71.36842 Q 572.21053,0 530.52632,0 Z M 176.84211,-606.31579 H 783.1579 v -252.63158 h -50.52632 v 151.57895 q 0,21.47369 -14.52631,36 -14.52632,14.52632 -36,14.52632 -21.47369,0 -36,-14.52632 -14.52632,-14.52631 -14.52632,-36 v -151.57895 h -50.52632 v 50.52632 q 0,21.47368 -14.52631,36 -14.52632,14.52632 -36,14.52632 -21.47369,0 -36,-14.52632 Q 480,-786.94737 480,-808.42105 v -50.52632 H 277.89475 q -41.68422,0 -71.36843,29.68422 -29.68421,29.6842 -29.68421,71.36842 z m 0,202.10526 H 783.1579 V -505.26315 H 176.84211 Z m 0,0 v -101.05262 z"
            id="path1"
            style="stroke-width:1.26315;fill:#000f00"/>
    <path
            d="m 1335.7031,-458.98437 36.9532,36.95312 -17.9688,-18.98437 z"
            style=""
            id="path9"/>
    <path
            d="m 581.05263,-808.42105 v -373.30525 c 0,-15.1099 -5.08988,-27.7965 -15.31138,-38.018 -10.22149,-10.2215 -22.908,-15.3114 -38.01794,-15.3114 -15.11005,0 -27.79656,5.0899 -38.01806,15.3114 -10.22137,10.2215 -15.31125,22.9081 -15.31125,38.018 v 373.30525 c 0,15.10994 5.08988,27.79658 15.31125,38.01794 10.2215,10.2215 22.90801,15.31138 38.01806,15.31138 15.10994,0 27.79645,-5.08988 38.01794,-15.31138 10.2215,-10.22136 15.31138,-22.908 15.31138,-38.01794 z"
            id="path10"
            style="fill:#c9aa5c;stroke-width:1.33323"/>
    <path
            d="m 373.34737,-858.94737 h 373.30525 c 15.1099,0 27.7965,-5.08988 38.018,-15.31138 10.2215,-10.22149 15.31141,-22.908 15.31141,-38.01794 0,-15.11008 -5.0899,-27.79658 -15.31141,-38.01808 -10.2215,-10.2214 -22.9081,-15.3112 -38.018,-15.3112 H 373.34737 c -15.10994,0 -27.79658,5.0898 -38.01794,15.3112 -10.2215,10.2215 -15.31138,22.908 -15.31138,38.01808 0,15.10994 5.08988,27.79645 15.31138,38.01794 10.22136,10.2215 22.908,15.31138 38.01794,15.31138 z"
            id="path14"
            style="fill:#65c495;stroke-width:1.33323"/>
    <path
            d="m 738.23758,-707.36842 v -373.30528 c 0,-15.1099 -5.08988,-27.7965 -15.31138,-38.018 -10.22149,-10.2215 -22.908,-15.3114 -38.01794,-15.3114 -15.11005,0 -27.79656,5.0899 -38.01806,15.3114 -10.22137,10.2215 -15.31125,22.9081 -15.31125,38.018 v 373.30528 c 0,15.10994 5.08988,27.79658 15.31125,38.01794 10.2215,10.2215 22.90801,15.31138 38.01806,15.31138 15.10994,0 27.79645,-5.08988 38.01794,-15.31138 10.2215,-10.22136 15.31138,-22.908 15.31138,-38.01794 z"
            id="path3"
            style="fill:#e89398;stroke-width:1.33323"/></svg>
