<?xml version="1.0" encoding="UTF-8" standalone="no"?>
<svg
   height="24px"
   viewBox="0 -960 960 960"
   width="24px"
   fill="#1f1f1f"
   version="1.1"
   id="svg1"
   sodipodi:docname="icon.svg"
   inkscape:version="1.4.4 (dcaf3e7d9e, 2026-05-05)"
   xmlns:inkscape="http://www.inkscape.org/namespaces/inkscape"
   xmlns:sodipodi="http://sodipodi.sourceforge.net/DTD/sodipodi-0.dtd"
   xmlns="http://www.w3.org/2000/svg"
   xmlns:svg="http://www.w3.org/2000/svg">
  <style id="dark-mode-inversion-style">
    @media (prefers-color-scheme: dark) {
      path, rect, circle, polygon, ellipse, line, polyline {
        filter: invert(100%) hue-rotate(180deg) !important;
      }
    }
  </style>
  <defs
     id="defs1" />
  <sodipodi:namedview
     id="namedview1"
     pagecolor="#ffffff"
     bordercolor="#000000"
     borderopacity="0.25"
     inkscape:showpageshadow="2"
     inkscape:pageopacity="0.0"
     inkscape:pagecheckerboard="0"
     inkscape:deskcolor="#d1d1d1"
     inkscape:zoom="14.166667"
     inkscape:cx="8.5411765"
     inkscape:cy="2.6117647"
     inkscape:window-width="1707"
     inkscape:window-height="888"
     inkscape:window-x="0"
     inkscape:window-y="0"
     inkscape:window-maximized="1"
     inkscape:current-layer="svg1" />
  <path
     d="M 373.33333,-480 Z"
     id="path9"
     style="fill:#89993c;stroke-width:1.33333" />
  <path
     d="m 640,-640 q -22.66666,0 -38,-15.33334 -15.33333,-15.33333 -15.33333,-37.99999 0,-22.66667 15.33333,-38 15.33334,-15.33334 38,-15.33334 h 53.33333 q 22.66667,0 38,15.33334 15.33334,15.33333 15.33334,38 0,22.66666 -15.33334,37.99999 Q 716,-640 693.33333,-640 Z"
     id="path8"
     style="fill:#8785d5;stroke-width:1.33333" />
  <path
     d="m 640,-426.66667 q -22.66666,0 -38,-15.33333 -15.33333,-15.33334 -15.33333,-38 0,-22.66666 15.33333,-38 15.33334,-15.33333 38,-15.33333 h 53.33333 q 22.66667,0 38,15.33333 15.33334,15.33334 15.33334,38 0,22.66666 -15.33334,38 -15.33333,15.33333 -38,15.33333 z"
     id="path7"
     style="fill:#8785d5;stroke-width:1.33333" />
  <path
     d="m 640,0 q -22.66666,0 -38,-15.333334 -15.33333,-15.333337 -15.33333,-37.999999 0,-22.666673 15.33333,-38.000001 15.33334,-15.333326 38,-15.333326 H 853.33334 V -853.33334 H 640 q -22.66666,0 -38,-15.33333 -15.33333,-15.33332 -15.33333,-38 0,-22.66666 15.33333,-38 Q 617.33334,-960 640,-960 h 213.33334 q 44,0 75.33333,31.33333 Q 960,-897.33334 960,-853.33334 v 746.66668 q 0,43.999999 -31.33333,75.333327 Q 897.33334,0 853.33334,0 Z"
     id="path6"
     style="fill:#8785d5;stroke-width:1.33333" />
  <path
     d="M 373.33333,53.333333 V 0 H 106.66666 Q 62.666662,0 31.333333,-31.333333 3.3333333e-7,-62.666661 3.3333333e-7,-106.66666 v -746.66668 q 0,-44 31.33333266666667,-75.33333 Q 62.666662,-960 106.66666,-960 h 266.66667 v -53.3333 q 0,-22.6667 15.33334,-38 15.33333,-15.3334 38,-15.3334 22.66666,0 38,15.3334 Q 480,-1036 480,-1013.3333 V 53.333333 Q 480,76 464.66667,91.333332 q -15.33334,15.333338 -38,15.333338 -22.66667,0 -38,-15.333338 Q 373.33333,76 373.33333,53.333333 Z M 106.66666,-106.66666 H 373.33333 V -213.33333 H 266.66667 q -22.66667,0 -38,-15.33334 -15.33334,-15.33333 -15.33334,-38 0,-22.66666 15.33334,-37.99999 Q 244,-320 266.66667,-320 H 373.33333 V -426.66667 H 266.66667 q -22.66667,0 -38,-15.33333 -15.33334,-15.33334 -15.33334,-38 0,-22.66666 15.33334,-38 15.33333,-15.33333 38,-15.33333 H 373.33333 V -640 H 266.66667 q -22.66667,0 -38,-15.33334 -15.33334,-15.33333 -15.33334,-37.99999 0,-22.66667 15.33334,-38 15.33333,-15.33334 38,-15.33334 H 373.33333 V -853.33334 H 106.66666 Z"
     id="path1"
     style="fill:#89993c;stroke-width:1.33333" />
</svg>
