<?xml version="1.0" encoding="UTF-8" standalone="no"?>
<svg
   height="24px"
   viewBox="0 -960 960 960"
   width="24px"
   fill="#1f1f1f"
   version="1.1"
   id="svg1"
   sodipodi:docname="icon.svg"
   inkscape:version="1.4.4 (dcaf3e7d9e, 2026-05-05)"
   xmlns:inkscape="http://www.inkscape.org/namespaces/inkscape"
   xmlns:sodipodi="http://sodipodi.sourceforge.net/DTD/sodipodi-0.dtd"
   xmlns="http://www.w3.org/2000/svg"
   xmlns:svg="http://www.w3.org/2000/svg">
  <style id="dark-mode-inversion-style">
    @media (prefers-color-scheme: dark) {
      path, rect, circle, polygon, ellipse, line, polyline {
        filter: invert(100%) hue-rotate(180deg) !important;
      }
    }
  </style>
  <defs
     id="defs1" />
  <sodipodi:namedview
     id="namedview1"
     pagecolor="#ffffff"
     bordercolor="#000000"
     borderopacity="0.25"
     inkscape:showpageshadow="2"
     inkscape:pageopacity="0.0"
     inkscape:pagecheckerboard="0"
     inkscape:deskcolor="#d1d1d1"
     inkscape:zoom="28.291667"
     inkscape:cx="12"
     inkscape:cy="12"
     inkscape:window-width="1707"
     inkscape:window-height="888"
     inkscape:window-x="0"
     inkscape:window-y="0"
     inkscape:window-maximized="1"
     inkscape:current-layer="svg1" />
  <path
     style="fill:#af4e39;fill-opacity:1;stroke:none;stroke-width:203.593;stroke-linecap:round;stroke-linejoin:round"
     d="m 534.81683,-850.08192 c -18.22914,11.01945 -8.6733,35.17462 -11.0512,52.65464 0.39599,56.96742 -0.78721,114.1575 0.58798,170.98671 1.5492,17.65109 26.0013,20.22165 34.63886,6.1928 47.36154,-48.26736 96.75202,-94.74508 142.49087,-144.49404 9.23801,-17.67977 -10.00607,-29.27511 -23.15862,-36.08201 -41.09178,-24.4756 -86.34186,-42.52831 -133.61238,-50.41375 -3.29819,0.3852 -6.59701,0.77045 -9.89551,1.15565 z"
     id="path3" />
  <path
     style="fill:#5e5ece;fill-opacity:1;stroke:none;stroke-width:203.593;stroke-linecap:round;stroke-linejoin:round"
     d="m 762.48024,-700.20343 c -70.14948,69.93294 -141.35353,139.12729 -210.6369,209.74099 -12.83346,17.69544 10.00266,31.46364 20.47835,43.15002 63.46711,62.41873 124.75399,127.23192 190.49401,187.24248 15.33277,9.75636 28.76635,-6.16674 34.93464,-18.94194 40.43622,-63.5217 61.34004,-138.95862 58.45649,-214.263 -1.53545,-72.94032 -26.34167,-145.29743 -68.78627,-204.36078 -6.39708,-7.81677 -16.87872,-7.7945 -24.94032,-2.56777 z"
     id="path4" />
  <path
     style="fill:#4d7638;fill-opacity:1;stroke:none;stroke-width:203.593;stroke-linecap:round;stroke-linejoin:round"
     d="m 413.5935,-851.0636 c -130.02642,19.83816 -242.58918,116.93637 -287.26166,239.8357 -25.37411,66.07235 -26.935377,138.97131 -15.98201,208.17562 29.47869,149.10463 158.04396,273.84288 309.01363,295.20528 74.56949,13.202158 152.2677,-0.186 220.75434,-31.39314 19.1889,-10.41264 40.03296,-19.64754 56.31989,-34.1964 12.20352,-13.13718 -1.326,-27.92586 -11.56229,-36.86364 -82.11275,-84.35556 -165.35473,-167.60231 -248.11087,-251.32537 -0.58799,-120.86771 1.26661,-241.7746 -1.18439,-362.61783 0.342,-13.30293 -6.57559,-27.72828 -21.9864,-26.82022 z"
     id="path2" />
  <path
     style="stroke-width:1.5"
     d="M 480,0 Q 278.99999,0 139.5,-139.5 0,-278.99999 0,-480 0,-679.49999 139.5,-819.75 278.99999,-960 480,-960 679.49999,-960 819.75,-819.75 960,-679.49999 960,-480 960,-278.99999 819.75,-139.5 679.49999,0 480,0 Z M 774.00001,-688.5 564,-480 772.49999,-271.5 Q 804,-315 822.00001,-368.25 q 17.99998,-53.24999 17.99998,-111.75 0,-58.50001 -17.25,-111.75 -17.25,-53.25 -48.74998,-96.75 z M 540,-835.5 V -624 L 688.5,-774.00001 Q 655.5,-798 617.99999,-813 580.5,-828.00001 540,-835.5 Z m -60,715.49999 q 56.99999,0 110.25,-17.25 Q 643.49999,-154.5 687,-185.99999 l -267,-268.5 V -835.5 Q 291,-814.50001 205.5,-714.00001 119.99999,-613.5 119.99999,-480 q 0,150.00001 105,255 105,104.99999 255.00001,104.99999 z"
     id="path5" />
  <path
     style="fill:#ffffff;stroke-width:1.5"
     d="m 236.99684,160 v -465 q -38.99999,-10.49999 -64.5,-42 -25.5,-31.5 -25.5,-75 v -288 q 0,-12 9,-20.99999 9.00001,-9.00001 21,-9.00001 12,0 21.00001,9.00001 Q 206.99684,-722 206.99684,-710 v 210 h 45.00001 v -210 q 0,-12 9,-20.99999 9,-9.00001 20.99999,-9.00001 12.00001,0 21,9.00001 Q 311.99685,-722 311.99685,-710 v 210 h 45 v -210 q 0,-12 9,-20.99999 Q 374.99683,-740 386.99684,-740 q 12.00001,0 21.00001,9.00001 Q 416.99686,-722 416.99686,-710 v 288 q 0,43.5 -25.50001,75 -25.5,31.50001 -64.5,42 v 465 z"
     id="path1" />
</svg>
